<?xml version="1.0" standalone="no"?>
<!DOCTYPE svg PUBLIC "-//W3C//DTD SVG 20010904//EN"
 "http://www.w3.org/TR/2001/REC-SVG-20010904/DTD/svg10.dtd">
<svg version="1.0" xmlns="http://www.w3.org/2000/svg"
 width="341.000000pt" height="203.000000pt" viewBox="0 0 341.000000 203.000000"
 preserveAspectRatio="xMidYMid meet">

<g transform="translate(0.000000,203.000000) scale(0.100000,-0.100000)"
fill="#000000" stroke="none">
<path d="M1842 1587 c-47 -26 -67 -82 -51 -140 14 -52 46 -83 104 -104 39 -14
54 -26 68 -54 41 -85 30 -264 -19 -296 -24 -15 -27 -15 -52 4 -15 11 -30 36
-35 56 -8 32 -11 35 -28 24 -41 -25 -12 -114 46 -141 51 -25 105 -10 134 38
30 48 44 167 31 252 -16 101 -44 144 -107 169 -74 30 -85 41 -81 89 3 34 7 42
30 50 27 10 49 3 90 -26 14 -10 20 -10 33 2 13 14 13 18 -1 39 -32 44 -115 64
-162 38z"/>
<path d="M2075 1580 c-3 -6 -3 -19 0 -30 5 -15 15 -20 41 -20 l34 0 0 -279 c0
-167 4 -291 10 -307 10 -26 11 -26 30 -9 19 17 20 34 22 304 3 234 5 285 17
283 27 -6 51 9 51 32 0 18 -7 25 -31 30 -50 10 -167 7 -174 -4z"/>
<path d="M2402 1558 c-17 -55 -21 -81 -53 -296 -48 -329 -48 -351 -6 -319 17
12 29 64 47 192 18 125 18 125 54 125 l33 0 17 -147 c21 -175 29 -197 65 -174
15 10 8 95 -35 404 -30 222 -31 226 -61 238 -40 15 -51 11 -61 -23z m61 -185
c6 -52 5 -53 -19 -53 -22 0 -25 3 -20 28 3 15 8 47 12 72 8 53 17 36 27 -47z"/>
<path d="M2600 1560 c0 -28 3 -30 34 -30 l35 0 3 -294 c2 -162 6 -297 10 -301
3 -4 16 -4 27 0 20 6 21 13 23 298 3 239 5 291 17 289 27 -6 51 9 51 32 0 28
-29 36 -131 36 l-69 0 0 -30z"/>
<path d="M745 1497 c-94 -32 -159 -88 -196 -172 -44 -98 -21 -252 47 -316 13
-12 24 -26 24 -31 0 -4 -112 -8 -248 -8 -228 0 -250 -2 -265 -18 -15 -17 -17
-56 -17 -360 l0 -341 22 -15 c20 -14 105 -16 719 -16 661 0 697 1 712 18 15
17 17 56 17 360 0 296 -2 343 -16 356 -13 14 -51 16 -265 16 -137 0 -249 4
-249 8 0 5 9 17 21 28 12 10 33 42 47 69 36 70 38 188 3 257 -31 63 -86 119
-145 146 -59 28 -157 37 -211 19z m198 -50 c114 -47 178 -188 143 -310 -35
-122 -136 -199 -260 -199 -82 0 -140 26 -199 92 -49 55 -67 104 -67 181 2 199
192 317 383 236z m-563 -577 l0 -70 445 0 444 0 3 68 3 67 119 3 c89 2 121 -1
128 -10 4 -7 8 -160 8 -339 0 -289 -2 -328 -16 -333 -9 -3 -320 -6 -693 -6
-513 0 -680 3 -689 12 -17 17 -17 649 0 666 8 8 52 12 130 12 l118 0 0 -70z
m333 55 c65 -27 136 -29 204 -6 51 17 87 21 193 21 l130 0 0 -55 0 -55 -415 0
-415 0 0 48 c0 27 3 52 7 55 14 14 259 7 296 -8z"/>
<path d="M810 1380 c-6 -11 -19 -20 -30 -20 -50 0 -86 -49 -75 -101 8 -34 48
-69 81 -69 22 0 24 -4 24 -56 0 -54 0 -55 -27 -52 -20 2 -32 12 -42 36 -15 33
-34 38 -39 10 -5 -24 46 -78 74 -78 13 0 28 -9 34 -20 6 -11 15 -20 19 -20 5
0 11 9 14 20 3 14 14 20 31 20 31 0 63 29 72 67 12 46 -23 87 -88 107 -14 4
-18 16 -18 56 0 47 2 50 25 50 19 0 31 -10 46 -35 22 -36 39 -38 39 -4 0 28
-44 69 -75 69 -18 0 -29 6 -32 20 -3 11 -9 20 -14 20 -4 0 -13 -9 -19 -20z m0
-105 c0 -45 -3 -55 -17 -55 -26 0 -53 30 -53 60 0 32 17 50 47 50 21 0 23 -4
23 -55z m90 -105 c24 -24 25 -38 4 -68 -10 -15 -24 -22 -37 -20 -18 2 -23 11
-25 42 -6 67 18 86 58 46z"/>
<path d="M177 643 c-4 -3 -7 -10 -7 -15 0 -4 297 -8 661 -8 524 0 660 3 657
13 -4 9 -145 13 -655 15 -357 1 -653 -1 -656 -5z"/>
<path d="M170 485 c0 -13 77 -15 657 -13 514 2 657 6 661 16 3 9 -133 12 -657
12 -582 0 -661 -2 -661 -15z"/>
<path d="M2779 797 c-73 -49 -104 -165 -94 -357 9 -174 32 -246 88 -280 71
-44 168 -3 183 75 11 58 -5 62 -51 11 -44 -47 -62 -54 -97 -35 -40 21 -51 73
-55 249 -4 185 9 246 58 282 24 19 28 19 65 3 36 -15 39 -15 51 1 17 23 -7 50
-56 64 -49 14 -53 13 -92 -13z"/>
<path d="M1798 804 c-5 -4 -8 -18 -8 -30 0 -19 6 -23 35 -26 l35 -3 3 -290 c1
-159 6 -296 10 -303 6 -9 13 -9 28 -2 18 10 19 24 19 300 l0 289 37 3 c38 3
51 20 35 44 -8 13 -183 29 -194 18z"/>
<path d="M2090 803 c-19 -3 -40 -9 -46 -14 -8 -7 -12 -90 -13 -273 -2 -304 3
-366 30 -366 10 0 21 5 24 10 3 6 6 98 6 205 -1 106 3 196 7 199 21 13 51 -7
58 -38 3 -17 26 -87 50 -156 87 -246 85 -240 111 -224 24 15 22 27 -48 232
-32 97 -59 179 -59 183 0 3 14 9 30 13 102 20 109 160 11 211 -32 16 -110 25
-161 18z m135 -75 c28 -13 43 -53 28 -77 -12 -18 -74 -33 -123 -29 l-35 3 -3
58 -3 57 55 0 c30 0 67 -5 81 -12z"/>
<path d="M2481 791 c-11 -22 -26 -104 -56 -306 -43 -290 -46 -315 -40 -325 10
-16 33 -12 44 8 9 17 34 154 47 260 6 51 7 52 40 52 19 0 34 -4 34 -9 0 -38
42 -307 49 -314 6 -6 17 -7 25 -4 22 9 21 61 -9 284 -49 375 -44 356 -98 365
-19 4 -30 0 -36 -11z m53 -193 c6 -56 5 -58 -17 -58 -23 0 -23 1 -14 71 11 79
21 74 31 -13z"/>
<path d="M3021 801 c-9 -6 -12 -46 -12 -137 0 -192 13 -491 21 -504 6 -9 13
-9 30 0 l23 12 -7 177 c-4 102 -3 172 2 166 5 -5 33 -68 62 -140 64 -156 97
-225 109 -225 18 0 32 30 26 52 -4 13 -43 110 -87 215 l-80 193 56 77 c58 80
65 106 31 111 -15 2 -34 -15 -70 -63 -27 -37 -50 -63 -52 -58 -1 4 -4 33 -8
65 -6 56 -20 74 -44 59z"/>
</g>
</svg>
